<?xml version="1.0" encoding="utf-8"?>
<!-- Generator: Adobe Illustrator 25.0.0, SVG Export Plug-In . SVG Version: 6.00 Build 0)  -->
<svg version="1.1" xmlns="http://www.w3.org/2000/svg" xmlns:xlink="http://www.w3.org/1999/xlink" x="0px" y="0px"
	 viewBox="0 0 378.9 110.9" style="enable-background:new 0 0 378.9 110.9;" xml:space="preserve">
<style type="text/css">
	.st0{clip-path:url(#SVGID_2_);fill:none;stroke:#FFFFFF;stroke-width:7;stroke-miterlimit:10;}
	.st1{clip-path:url(#SVGID_4_);fill:none;stroke:#FFFFFF;stroke-width:7;stroke-miterlimit:10;}
	.st2{clip-path:url(#SVGID_6_);fill:none;stroke:#FFFFFF;stroke-width:6;stroke-miterlimit:10;}
	.st3{clip-path:url(#SVGID_8_);fill:none;stroke:#FFFFFF;stroke-width:7;stroke-miterlimit:10;}
	.st4{clip-path:url(#SVGID_10_);fill:none;stroke:#FFFFFF;stroke-width:7;stroke-miterlimit:10;}
	.st5{clip-path:url(#SVGID_12_);fill:none;stroke:#FFFFFF;stroke-width:7;stroke-miterlimit:10;}
	.st6{clip-path:url(#SVGID_14_);fill:none;stroke:#FFFFFF;stroke-width:7;stroke-miterlimit:10;}
	.st7{clip-path:url(#SVGID_16_);fill:none;stroke:#FFFFFF;stroke-width:7;stroke-miterlimit:10;}
	.st8{fill:none;stroke:#FFFFFF;stroke-width:2;stroke-miterlimit:10;}
	.st9{fill:none;stroke:#010202;stroke-width:7;stroke-miterlimit:10;}
</style>
<g id="Calque_1">
	<g>
		<defs>
			<path id="SVGID_1_" d="M25.9,80.1V29.7h2.9l18.3,27.6l18.2-27.6h2.8v50.4h-2.7V34.2L47.7,60.8h-1.4L28.6,34.3v45.7H25.9z"/>
		</defs>
		<clipPath id="SVGID_2_">
			<use xlink:href="#SVGID_1_"  style="overflow:visible;"/>
		</clipPath>
		<path class="st0" d="M25.9,82.3c0-16.8,0-33.6,0-50.4c7,9.9,13.9,19.8,20.9,29.8c6.2-9.9,12.3-19.8,18.5-29.8
			c0.5,16.5,0.9,32.9,1.4,49.4"/>
	</g>
	<g>
		<defs>
			<path id="SVGID_3_" d="M92.1,80.8c-2.4,0-4.5-0.4-6.3-1.1c-1.9-0.7-3.5-1.8-4.8-3.3c-1.3-1.5-2.3-3.4-3-5.8
				c-0.7-2.4-1.1-5.2-1.1-8.6c0-4,0.4-7.3,1.3-10c0.9-2.7,2.1-4.8,3.6-6.4c1.5-1.6,3.3-2.7,5.3-3.5c2-0.7,4.2-1.1,6.5-1.1
				c4.4,0,7.7,1.2,10,3.7c2.2,2.5,3.3,6.5,3.3,12.1c0,0.2,0,0.5,0,0.9c0,0.4,0,0.7,0,1c-0.9,0-2.2,0.1-3.9,0.3
				c-1.7,0.1-3.7,0.3-6,0.4c-2.4,0.2-5,0.3-7.8,0.4c-2.9,0.1-5.9,0.1-9.2,0.1c0,0.3-0.1,0.7-0.1,1c0,0.3,0,0.6,0,1
				c0,4,0.5,7.2,1.5,9.6c1,2.4,2.5,4.1,4.4,5.2c1.9,1.1,4.2,1.6,6.9,1.6c1.6,0,3.3-0.1,4.9-0.3c1.6-0.2,3.1-0.4,4.5-0.7
				c1.4-0.3,2.7-0.6,3.8-0.9l0.5,2.3c-1.2,0.3-2.5,0.6-4,0.9c-1.5,0.3-3.1,0.5-4.8,0.7C95.8,80.7,94,80.8,92.1,80.8z M79.9,57.9
				c2.9,0,5.6,0,8.3-0.1c2.6-0.1,5.1-0.2,7.2-0.3c2.2-0.1,4-0.2,5.5-0.3c1.5-0.1,2.5-0.2,3-0.3c0-3.2-0.4-5.8-1.2-7.8
				c-0.8-2-1.9-3.4-3.5-4.3c-1.5-0.9-3.5-1.4-6-1.4c-1.4,0-2.9,0.2-4.4,0.6c-1.5,0.4-2.9,1.2-4.1,2.2c-1.2,1.1-2.3,2.5-3.2,4.4
				C80.8,52.5,80.2,55,79.9,57.9z"/>
		</defs>
		<clipPath id="SVGID_4_">
			<use xlink:href="#SVGID_3_"  style="overflow:visible;"/>
		</clipPath>
		<path class="st1" d="M105.7,76.5c-6.4,5.1-14.3,6.4-19.9,3.2c-6-3.5-7-10.8-7.6-15.3c-0.6-4.4-1.7-12,3.5-17.6
			c3.5-3.7,10.6-7.5,17-4.1c4.9,2.6,7.6,8.5,6.7,14.6c-8.5,0.2-16.9,0.3-25.4,0.5"/>
	</g>
	<g>
		<defs>
			<path id="SVGID_5_" d="M114.8,80.1V26.8h2.8v18.3c1.5-0.8,3-1.5,4.5-2.1c1.5-0.6,3-1,4.6-1.4c1.6-0.4,3.2-0.5,5-0.5
				c2.2,0,4,0.4,5.5,1.1c1.5,0.7,2.7,1.9,3.5,3.4c0.8,1.5,1.2,3.4,1.2,5.7v28.8h-2.8V51.8c0-2.6-0.7-4.6-2.1-6.1
				c-1.4-1.5-3.5-2.2-6.4-2.2c-1.5,0-3,0.2-4.5,0.5c-1.5,0.3-2.9,0.8-4.3,1.4c-1.4,0.6-2.9,1.3-4.4,2.1v32.6H114.8z"/>
		</defs>
		<clipPath id="SVGID_6_">
			<use xlink:href="#SVGID_5_"  style="overflow:visible;"/>
		</clipPath>
		<path class="st2" d="M115.6,81.5c0-1.3,0-2.6,0-3.8c-0.1-11.2-0.1-22.4-0.2-33.7l0-0.3c0.2-6.1,0.3-12.2,0.5-18.2
			c1,7.2,2,14.5,2.9,21.7c0.3-1.1-2,1.6-0.5,0.2c3.6-3.5,12.9-7.9,16.6-5.5c2.5,1.7,5,5.3,5,5.3c0,10.9,0,21.9,0,32.8
			c0,0.2,0,0.4,0,0.6"/>
	</g>
	<g>
		<defs>
			<path id="SVGID_7_" d="M176.4,80.1l-0.5-3.7c-2.3,1.5-4.5,2.7-6.5,3.4c-2,0.7-4.1,1.1-6.2,1.1c-4,0-7.2-1.6-9.4-4.9
				c-2.3-3.2-3.4-7.9-3.4-14c0-4.8,0.6-8.8,1.8-11.9c1.2-3.1,3-5.4,5.4-6.8c2.4-1.4,5.6-2.2,9.4-2.2c1.3,0,2.8,0.1,4.3,0.2
				c1.5,0.1,3.1,0.4,4.7,0.8V26.8h2.8v53.3H176.4z M175.9,73.9V44.4c-1.8-0.4-3.4-0.7-4.8-0.9c-1.4-0.2-2.7-0.3-3.9-0.3
				c-3.2,0-5.9,0.6-7.9,1.9c-2.1,1.2-3.6,3.2-4.6,5.9c-1,2.7-1.5,6.3-1.5,10.7c0,3.6,0.4,6.6,1.3,9c0.9,2.5,2.1,4.3,3.7,5.6
				c1.6,1.3,3.5,1.9,5.7,1.9c1.3,0,2.6-0.1,3.9-0.4c1.2-0.3,2.5-0.8,3.9-1.4C172.9,75.8,174.3,75,175.9,73.9z"/>
		</defs>
		<clipPath id="SVGID_8_">
			<use xlink:href="#SVGID_7_"  style="overflow:visible;"/>
		</clipPath>
		<path class="st3" d="M176.8,74.9c0.3,6.8,0.5,8.2,0.6,8.2c0.4,0,0.7-21.2,0.4-41c-0.1-7.3-0.3-13.4-0.4-17.5
			c-0.9,5.9-1.8,11.7-2.6,17.6c-0.9-0.4-10-4-17.2,1c-3.4,2.4-4.9,5.7-5.4,6.8c-2,4.4-1.5,8.3-0.8,13.5c0.7,5.6,1.1,9,3.8,12.3
			c0.7,0.9,3.5,4.2,8.1,5C170.9,82.1,176.6,75.2,176.8,74.9z"/>
	</g>
	<g>
		<defs>
			<path id="SVGID_9_" d="M190.5,32c-0.8,0-1.3-0.1-1.5-0.4c-0.2-0.2-0.4-0.7-0.4-1.5c0-0.8,0.1-1.3,0.3-1.5
				c0.2-0.2,0.7-0.3,1.5-0.3c0.7,0,1.2,0.1,1.4,0.3c0.2,0.2,0.3,0.7,0.3,1.5c0,0.8-0.1,1.3-0.3,1.5C191.7,31.9,191.2,32,190.5,32z
				 M189,80.1V41.8h2.8v38.3H189z"/>
		</defs>
		<clipPath id="SVGID_10_">
			<use xlink:href="#SVGID_9_"  style="overflow:visible;"/>
		</clipPath>
		<path class="st4" d="M190.5,79.9c-0.1-12.7-0.2-25.4-0.3-38c-1.1-3-2.1-6-3.2-9.1c2.5-2,5.1-4,7.6-6"/>
	</g>
	<g>
		<defs>
			<path id="SVGID_11_" d="M222.2,80.1V29.7c2.4-0.2,4.6-0.3,6.4-0.5c1.8-0.1,3.4-0.2,4.9-0.3c1.4,0,2.9-0.1,4.3-0.1
				c3.8,0,6.9,0.4,9.3,1.3c2.4,0.9,4.1,2.2,5.2,4c1.1,1.8,1.6,4.2,1.6,7.2c0,3-0.7,5.6-2.2,7.7c-1.4,2.2-3.4,3.7-5.8,4.4v0.1
				c3.3,0.6,5.8,2,7.6,4.2c1.8,2.2,2.7,5.1,2.7,8.6c0,2.5-0.3,4.6-1,6.4c-0.7,1.8-1.7,3.3-3.1,4.4c-1.4,1.2-3.3,2-5.6,2.6
				s-5.1,0.8-8.3,0.8c-1.1,0-2.1,0-3,0c-1,0-1.9,0-2.8-0.1c-0.9,0-1.9-0.1-2.9-0.1c-1,0-2.1-0.1-3.3-0.2
				C225,80.3,223.7,80.2,222.2,80.1z M225.1,53.1h15.6c2.1,0,4-0.5,5.5-1.4c1.6-1,2.8-2.3,3.6-4c0.8-1.7,1.3-3.6,1.3-5.8
				c0-2.4-0.5-4.5-1.4-6c-0.9-1.6-2.4-2.7-4.5-3.4c-2.1-0.7-4.8-1.1-8.1-1.1c-0.9,0-1.7,0-2.4,0c-0.7,0-1.3,0-1.9,0
				c-0.6,0-1.3,0.1-1.9,0.1c-0.7,0-1.5,0.1-2.4,0.1c-1,0-2.1,0.1-3.4,0.2V53.1z M225.1,77.8c1.8,0.1,3.3,0.2,4.5,0.3
				c1.2,0.1,2.3,0.1,3.3,0.2c1,0,1.8,0.1,2.6,0.1s1.6,0,2.4,0c3.8,0,6.8-0.4,9.1-1.2c2.3-0.8,4-2,5-3.8c1-1.8,1.5-4,1.5-6.9
				c0-3.5-1.1-6.2-3.2-8.1c-2.2-1.9-5.2-2.9-9.1-2.9h-16.1V77.8z"/>
		</defs>
		<clipPath id="SVGID_12_">
			<use xlink:href="#SVGID_11_"  style="overflow:visible;"/>
		</clipPath>
		<path class="st5" d="M222.2,29.7c0,0.3,0.7,23.6,0.7,23.9c0,0.1,0,0.2,0,0.3c0.2,8.7,0.5,17.3,0.7,26c1.1,0.3,2.7,0.6,4.7,0.9
			c4.2,0.5,14.7,1.8,22.2-4.4c1.5-1.3,6.1-5,5.8-9.9c-0.2-3.3-2.5-6-4.3-8c-2.2-2.4-4.5-3.9-6-4.8c-16.8-0.8-20.9-0.9-20.9-0.7
			c0,0.3,17.7,4.3,24.3-3.6c1.8-2.2,3.2-5.7,2.9-9.4c-0.1-1.1-0.3-5-3.2-7.6c-2.6-2.3-5.9-2.4-9.7-2.3c-6,0-12.8,0.2-20.2,0.6"/>
	</g>
	<g>
		<defs>
			<path id="SVGID_13_" d="M264.6,80.1V29.7h2.9V57h30.9V29.7h2.8v50.4h-2.8V59.6h-30.9v20.4H264.6z"/>
		</defs>
		<clipPath id="SVGID_14_">
			<use xlink:href="#SVGID_13_"  style="overflow:visible;"/>
		</clipPath>
		<path class="st6" d="M267.2,28.1c-2.3,35.6-2.9,53.5-1.8,53.6c0.8,0.1,2.3-8.3,4.7-25.2c7.8,1.1,16.4,1.8,25.8,1.5
			c1.9-0.1,3.7-0.2,5.6-0.3c-0.5,8-1,16-1.5,24c0.2-17.9,0.4-35.7,0.6-53.6"/>
	</g>
	<g>
		<defs>
			<path id="SVGID_15_" d="M308,80.1l17.9-51h2.7l18,51h-3.1l-5.2-15h-22.1l-5.3,15H308z M316.9,62.5h20.7L327.2,33L316.9,62.5z"/>
		</defs>
		<clipPath id="SVGID_16_">
			<use xlink:href="#SVGID_15_"  style="overflow:visible;"/>
		</clipPath>
		<path class="st7" d="M307.6,81.4c2.3-6.5,4.6-13.1,6.8-19.6c0,0,0,0,0,0c0,0,0,0,0,0c0,0,4.5-12.8,11.4-32.7
			c6.9,17,13.8,34,20.7,51c-3.4-5.5-6.8-11-10.3-16.5c-7.3-0.6-14.6-1.2-21.8-1.7"/>
	</g>
	<rect x="12.7" y="14.8" class="st8" width="349.7" height="83.3"/>
</g>
<g id="Calque_2">
	<path class="st9" d="M117.6,80.1"/>
</g>
</svg>
