<?xml version="1.0" standalone="no"?>
<!DOCTYPE svg PUBLIC "-//W3C//DTD SVG 20010904//EN"
 "http://www.w3.org/TR/2001/REC-SVG-20010904/DTD/svg10.dtd">
<svg version="1.0" xmlns="http://www.w3.org/2000/svg"
 width="1398.000000pt" height="1398.000000pt" viewBox="0 0 1398.000000 1398.000000"
 preserveAspectRatio="xMidYMid meet">
<metadata>
Created by potrace 1.14, written by Peter Selinger 2001-2017
</metadata>
<g transform="translate(0.000000,1398.000000) scale(0.100000,-0.100000)"
fill="#000000" stroke="none">
<path d="M9873 10827 l-782 -782 84 -82 c46 -46 88 -83 93 -83 8 0 1483 1467
1544 1537 17 18 14 22 -70 106 l-87 87 -782 -783z"/>
<path d="M9859 10112 l-1496 -1497 90 -88 91 -88 1496 1496 1496 1496 -76 77
c-42 42 -83 82 -91 89 -13 10 -263 -237 -1510 -1485z"/>
<path d="M9853 9402 c-1203 -1204 -2193 -2195 -2200 -2203 -10 -13 3 -30 76
-103 l87 -87 2205 2205 2205 2205 -85 85 c-48 48 -89 86 -93 86 -3 0 -991
-985 -2195 -2188z"/>
<path d="M1940 7638 l0 -3883 929 929 929 929 -4 1186 c-1 652 -5 1211 -7
1241 -2 30 -8 100 -12 155 -8 107 -9 125 -19 225 -8 76 -18 89 99 -135 42 -82
106 -204 140 -270 34 -66 102 -196 150 -290 87 -169 125 -242 308 -595 238
-459 273 -526 284 -545 11 -18 61 29 623 590 335 335 610 615 610 621 0 6 -31
72 -68 145 -38 74 -176 346 -307 604 -258 511 -500 988 -770 1520 -95 187
-261 516 -370 730 -228 450 -246 484 -294 546 -60 75 -109 113 -206 156 -37
17 -106 18 -1027 21 l-988 3 0 -3883z"/>
<path d="M8888 7733 l-3156 -3158 88 -89 89 -89 3159 3159 3159 3159 -87 88
c-48 48 -89 87 -91 87 -2 0 -1425 -1421 -3161 -3157z"/>
<path d="M11223 9308 l-913 -913 -5 -75 c-3 -41 -9 -97 -12 -125 -4 -27 -8
-1330 -10 -2895 l-4 -2845 928 0 928 0 1 3883 c1 2135 1 3882 0 3882 -1 0
-412 -411 -913 -912z"/>
<path d="M8116 6201 l-2099 -2099 78 -148 c79 -153 110 -208 132 -234 71 -88
96 -114 143 -153 30 -25 84 -61 120 -79 165 -86 235 -98 570 -94 146 2 281 6
300 10 138 29 276 99 378 191 106 97 127 132 387 640 65 127 143 280 175 340
32 61 101 196 155 300 54 105 128 249 165 320 37 72 116 225 175 340 59 116
138 269 175 340 37 72 111 216 165 320 54 105 131 255 172 335 42 80 113 217
158 305 81 157 159 308 345 670 87 169 122 237 329 638 45 86 80 157 79 157
-2 0 -947 -944 -2102 -2099z"/>
<path d="M5383 7045 c-343 -342 -623 -625 -623 -628 0 -2 39 -44 87 -92 l86
-87 629 629 628 628 -87 87 c-48 49 -90 88 -93 87 -3 0 -285 -281 -627 -624z"/>
<path d="M5637 6592 l-617 -617 88 -88 89 -88 617 617 618 617 -88 88 c-49 49
-89 89 -89 89 0 0 -278 -278 -618 -618z"/>
<path d="M5867 6122 l-628 -628 86 -87 c47 -48 89 -87 93 -87 4 0 288 281 632
625 l625 625 -90 90 -90 90 -628 -628z"/>
<path d="M6095 5644 c-335 -337 -610 -614 -611 -616 0 -2 39 -42 88 -89 l88
-87 592 593 c326 326 604 605 617 619 l25 26 -86 85 c-48 47 -90 84 -95 84 -4
-1 -282 -277 -618 -615z"/>
<path d="M2780 4125 c-509 -509 -926 -927 -927 -928 -1 -2 38 -43 87 -92 l89
-88 925 925 c509 509 926 929 926 933 0 7 -165 175 -172 175 -2 0 -419 -416
-928 -925z"/>
<path d="M2808 3450 c-494 -494 -898 -901 -898 -905 0 -4 39 -46 86 -93 l85
-86 893 890 c491 489 896 896 900 903 5 11 -20 41 -81 102 l-88 87 -897 -898z"/>
<path d="M3152 3092 l-543 -545 89 -90 89 -89 546 547 c301 301 547 550 547
553 0 9 -169 172 -177 171 -4 -1 -252 -247 -551 -547z"/>
<path d="M3507 2742 l-197 -197 90 -90 90 -90 195 195 c107 107 195 197 195
201 0 5 -120 129 -156 161 -19 17 -26 11 -217 -180z"/>
</g>
</svg>
